<svg width="60" height="60" viewBox="0 0 60 60" fill="none" xmlns="http://www.w3.org/2000/svg">
<path d="M30 1.875C14.467 1.875 1.875 14.467 1.875 30C1.875 45.533 14.467 58.125 30 58.125C45.533 58.125 58.125 45.533 58.125 30C58.125 14.467 45.533 1.875 30 1.875ZM20.5133 52.461C14.5604 49.94 9.85095 45.1602 7.4185 39.1706C4.98606 33.181 5.02941 26.471 7.53902 20.5133C7.65858 20.2318 7.7836 19.9527 7.91402 19.676L14.0625 25.2101V32.6204L23.0977 42.1875H27.6562V47.9352L22.1423 53.0815C21.5938 52.8945 21.0507 52.6876 20.5133 52.461ZM47.2357 47.2357C44.9752 49.503 42.2886 51.301 39.3307 52.5263C36.3727 53.7515 33.2017 54.3798 30 54.375C28.8346 54.3751 27.6707 54.2926 26.517 54.1281L31.4062 49.5648V38.4375H24.7148L17.8125 31.1296V23.5399L9.80859 16.3369C12.4568 12.4363 16.1732 9.38169 20.5129 7.53902C24.2263 5.96824 28.2716 5.3441 32.2858 5.72262C36.3 6.10113 40.1574 7.47046 43.5117 9.7077L38.1722 16.5728L39.9874 21.1109L38.7587 22.3396L29.5457 20.497L24.375 24.375V34.6875H45L50.8998 42.5538C49.8741 44.2581 48.6435 45.8304 47.2357 47.2357ZM54.375 30C54.3803 32.9987 53.8291 35.9724 52.7493 38.77L46.875 30.9375H28.125V26.25L30.4543 24.503L39.9913 26.4104L44.3876 22.0141L42.4528 17.1772L46.4606 12.0237C46.7232 12.2646 46.9814 12.5115 47.2352 12.7643C49.5026 15.0248 51.3007 17.7113 52.5261 20.6693C53.7514 23.6272 54.3797 26.7983 54.375 30Z" fill="#C21E38"/>
</svg>
