<svg width="20" height="20" viewBox="0 0 20 20" fill="none" xmlns="http://www.w3.org/2000/svg">
<path d="M10 3C8.67392 3 7.40215 3.52678 6.46447 4.46447C5.52678 5.40215 5 6.67392 5 8C5 9.128 5.67 10.444 6.61 11.71C7.536 12.956 8.657 14.07 9.428 14.777C9.58286 14.9226 9.78743 15.0037 10 15.0037C10.2126 15.0037 10.4171 14.9226 10.572 14.777C11.342 14.069 12.464 12.957 13.39 11.71C14.33 10.444 15 9.128 15 8C15 6.67392 14.4732 5.40215 13.5355 4.46447C12.5979 3.52678 11.3261 3 10 3ZM4 8C4 6.4087 4.63214 4.88258 5.75736 3.75736C6.88258 2.63214 8.4087 2 10 2C11.5913 2 13.1174 2.63214 14.2426 3.75736C15.3679 4.88258 16 6.4087 16 8C16 9.468 15.157 11.007 14.193 12.306C13.213 13.625 12.041 14.786 11.248 15.513C10.9087 15.8278 10.4629 16.0027 10 16.0027C9.53712 16.0027 9.09134 15.8278 8.752 15.513C7.959 14.786 6.786 13.625 5.807 12.306C4.843 11.007 4 9.468 4 8ZM10 6.5C9.60218 6.5 9.22064 6.65804 8.93934 6.93934C8.65804 7.22064 8.5 7.60218 8.5 8C8.5 8.39782 8.65804 8.77936 8.93934 9.06066C9.22064 9.34196 9.60218 9.5 10 9.5C10.3978 9.5 10.7794 9.34196 11.0607 9.06066C11.342 8.77936 11.5 8.39782 11.5 8C11.5 7.60218 11.342 7.22064 11.0607 6.93934C10.7794 6.65804 10.3978 6.5 10 6.5ZM7.5 8C7.5 7.33696 7.76339 6.70107 8.23223 6.23223C8.70107 5.76339 9.33696 5.5 10 5.5C10.663 5.5 11.2989 5.76339 11.7678 6.23223C12.2366 6.70107 12.5 7.33696 12.5 8C12.5 8.66304 12.2366 9.29893 11.7678 9.76777C11.2989 10.2366 10.663 10.5 10 10.5C9.33696 10.5 8.70107 10.2366 8.23223 9.76777C7.76339 9.29893 7.5 8.66304 7.5 8ZM14.42 13.638C14.1882 13.919 13.9498 14.1944 13.705 14.464C13.9597 14.536 14.197 14.6143 14.417 14.699C14.971 14.912 15.386 15.154 15.653 15.397C15.92 15.64 16 15.844 16 16C16 16.156 15.92 16.36 15.653 16.603C15.386 16.846 14.971 17.088 14.417 17.301C13.311 17.727 11.75 18.001 10 18.001C8.25 18.001 6.689 17.727 5.583 17.301C5.029 17.088 4.614 16.846 4.347 16.603C4.08 16.36 4 16.156 4 16C4 15.844 4.08 15.64 4.347 15.397C4.614 15.154 5.029 14.912 5.583 14.699C5.81653 14.6096 6.05412 14.5312 6.295 14.464C6.04987 14.1946 5.81146 13.9192 5.58 13.638C5.46045 13.6782 5.34176 13.7208 5.224 13.766C4.603 14.005 4.065 14.302 3.674 14.657C3.284 15.012 3 15.466 3 16C3 16.535 3.284 16.988 3.674 17.343C4.064 17.698 4.603 17.995 5.224 18.235C6.471 18.715 8.16 19 10 19C11.84 19 13.529 18.714 14.776 18.235C15.397 17.995 15.935 17.698 16.326 17.343C16.716 16.988 17 16.535 17 16C17 15.465 16.716 15.012 16.326 14.657C15.936 14.302 15.397 14.005 14.776 13.766C14.6582 13.7208 14.5396 13.6782 14.42 13.638Z" fill="#C21E38"/>
</svg>
