<svg width="48" height="48" viewBox="0 0 48 48" fill="none" xmlns="http://www.w3.org/2000/svg">
<rect width="48" height="48" rx="24" fill="#C21E38" fill-opacity="0.08"/>
<path d="M25.25 22.75C25.25 21.4239 24.7232 20.1521 23.7855 19.2145C22.8479 18.2768 21.5761 17.75 20.25 17.75C18.9239 17.75 17.6521 18.2768 16.7145 19.2145C15.7768 20.1521 15.25 21.4239 15.25 22.75C15.25 24.0761 15.7768 25.3479 16.7145 26.2855C17.6521 27.2232 18.9239 27.75 20.25 27.75C21.5761 27.75 22.8479 27.2232 23.7855 26.2855C24.7232 25.3479 25.25 24.0761 25.25 22.75Z" stroke="#C21E38" stroke-width="1.6" stroke-linecap="round" stroke-linejoin="round"/>
<path d="M22.7987 18.4475C22.641 17.3256 22.869 16.1834 23.4453 15.208C24.0216 14.2326 24.9121 13.4818 25.9709 13.0787C27.0297 12.6755 28.1941 12.6439 29.2732 12.9891C30.3523 13.3342 31.2822 14.0355 31.9105 14.9783C32.5389 15.921 32.8285 17.0492 32.7318 18.178C32.6352 19.3068 32.158 20.3693 31.3786 21.1915C30.5991 22.0137 29.5635 22.5468 28.4414 22.7034C27.3194 22.8601 26.1774 22.631 25.2025 22.0538M27.75 35.25C27.75 33.2609 26.9598 31.3532 25.5533 29.9467C24.1468 28.5402 22.2391 27.75 20.25 27.75C18.2609 27.75 16.3532 28.5402 14.9467 29.9467C13.5402 31.3532 12.75 33.2609 12.75 35.25" stroke="#C21E38" stroke-width="1.6" stroke-linecap="round" stroke-linejoin="round"/>
<path d="M35.25 30.25C35.25 28.2609 34.4598 26.3532 33.0533 24.9467C31.6468 23.5402 29.7391 22.75 27.75 22.75" stroke="#C21E38" stroke-width="1.6" stroke-linecap="round" stroke-linejoin="round"/>
</svg>
