<svg width="60" height="60" viewBox="0 0 60 60" fill="none" xmlns="http://www.w3.org/2000/svg">
<path d="M32.5 27.5C32.5 24.8478 31.4464 22.3043 29.5711 20.4289C27.6957 18.5536 25.1522 17.5 22.5 17.5C19.8478 17.5 17.3043 18.5536 15.4289 20.4289C13.5536 22.3043 12.5 24.8478 12.5 27.5C12.5 30.1522 13.5536 32.6957 15.4289 34.5711C17.3043 36.4464 19.8478 37.5 22.5 37.5C25.1522 37.5 27.6957 36.4464 29.5711 34.5711C31.4464 32.6957 32.5 30.1522 32.5 27.5Z" stroke="#C21E38" stroke-width="3" stroke-linecap="round" stroke-linejoin="round"/>
<path d="M27.5975 18.8951C27.2821 16.6512 27.738 14.3668 28.8906 12.416C30.0433 10.4652 31.8243 8.96365 33.9419 8.1574C36.0595 7.35114 38.3881 7.28796 40.5463 7.97819C42.7045 8.66843 44.5643 10.0712 45.8211 11.9566C47.0778 13.842 47.657 16.0984 47.4637 18.356C47.2704 20.6136 46.3161 22.7387 44.7571 24.383C43.1982 26.0274 41.127 27.0936 38.8828 27.4069C36.6387 27.7202 34.3547 27.2621 32.405 26.1076M37.5 52.5001C37.5 48.5218 35.9196 44.7065 33.1066 41.8935C30.2936 39.0804 26.4782 37.5001 22.5 37.5001C18.5218 37.5001 14.7064 39.0804 11.8934 41.8935C9.08035 44.7065 7.5 48.5218 7.5 52.5001" stroke="#C21E38" stroke-width="3" stroke-linecap="round" stroke-linejoin="round"/>
<path d="M52.5 42.5C52.5 38.5218 50.9196 34.7064 48.1066 31.8934C45.2936 29.0804 41.4782 27.5 37.5 27.5" stroke="#C21E38" stroke-width="3" stroke-linecap="round" stroke-linejoin="round"/>
</svg>
